<svg xmlns="http://www.w3.org/2000/svg" width="254.717" height="244.948" viewBox="0 0 254.717 244.948"><g transform="translate(-843.869 -275.606)"><line x2="72" y2="62" transform="translate(845.5 277.5)" fill="none" stroke="#eb0d0d" stroke-width="5"/><line x2="41" y2="62" transform="translate(1055.5 277.5)" fill="none" stroke="#a200ff" stroke-width="5"/><g transform="translate(845 277)" fill="none" stroke="#fff700" stroke-width="5"><rect width="210" height="191" stroke="none"/><rect x="2.5" y="2.5" width="205" height="186" fill="none"/></g><g transform="translate(917 339)" fill="none" stroke="#55bed4" stroke-width="5"><rect width="179" height="179" stroke="none"/><rect x="2.5" y="2.5" width="174" height="174" fill="none"/></g><line x2="72" y2="50" transform="translate(845.5 468.5)" fill="none" stroke="#ff2323" stroke-width="5"/><line x2="41" y2="46" transform="translate(1050.5 465.5)" fill="none" stroke="#707070" stroke-width="5"/><g transform="translate(845 277)" fill="none" stroke="#fff700" stroke-width="5"><rect width="210" height="191" stroke="none"/><rect x="2.5" y="2.5" width="205" height="186" fill="none"/></g><g transform="translate(917 339)" fill="none" stroke="#55bed4" stroke-width="5"><rect width="179" height="179" stroke="none"/><rect x="2.5" y="2.5" width="174" height="174" fill="none"/></g><line x2="72" y2="62" transform="translate(845.5 277.5)" fill="none" stroke="#eb0d0d" stroke-width="5"/><line x2="41" y2="62" transform="translate(1055.5 277.5)" fill="none" stroke="#a200ff" stroke-width="5"/></g></svg>