<svg xmlns="http://www.w3.org/2000/svg" width="189.769" height="314.971" viewBox="0 0 189.769 314.971"><g transform="translate(0 20.861) rotate(-8)" fill="#fff"><path d="M 146.5103607177734 294.9866333007813 C 137.2343902587891 294.862060546875 127.9806823730469 293.8668518066406 118.9730072021484 292.0236206054688 C 109.5678176879883 290.0990295410156 100.3165512084961 287.2272644042969 91.47620391845703 283.4881286621094 C 82.7958984375 279.816650390625 74.423583984375 275.2723083496094 66.59185791015625 269.9812622070313 C 58.83401107788086 264.7402038574219 51.53878021240234 258.7210693359375 44.90885543823242 252.0911560058594 C 38.27893447875977 245.4612274169922 32.25981903076172 238.1660003662109 27.01870346069336 230.4081573486328 C 21.72770309448242 222.5763854980469 17.18331909179688 214.2040710449219 13.51189517974854 205.5238037109375 C 9.772741317749023 196.6834564208984 6.900972366333008 187.4321899414063 4.976395130157471 178.0269622802734 C 3.001395225524902 168.3754577636719 2.00001072883606 158.4411468505859 2.00001072883606 148.5 C 2.00001072883606 138.5588531494141 3.001395225524902 128.6245422363281 4.976395130157471 118.9730377197266 C 6.900972366333008 109.5678100585938 9.772741317749023 100.316535949707 13.51189517974854 91.47618865966797 C 17.18331909179688 82.79592132568359 21.72770309448242 74.42361450195313 27.01870346069336 66.59184265136719 C 32.25981903076172 58.83399963378906 38.27893447875977 51.53876876831055 44.90885543823242 44.90884780883789 C 51.53878021240234 38.27892303466797 58.83401107788086 32.25980758666992 66.59185791015625 27.01873016357422 C 74.423583984375 21.72769165039063 82.7958984375 17.18334579467773 91.47620391845703 13.51188468933105 C 100.3165512084961 9.772730827331543 109.5678176879883 6.900961399078369 118.9730072021484 4.97638463973999 C 128.1108703613281 3.106499433517456 137.5015258789063 2.109360456466675 146.9121551513672 2.008515357971191 C 147.0419769287109 3.313431739807129 147.2177429199219 5.980998039245605 147.3768157958984 11.4208459854126 C 147.5490417480469 17.30976867675781 147.6799011230469 25.61450004577637 147.7657470703125 36.10438537597656 C 147.9158630371094 54.44669342041016 147.9336242675781 80.04934692382813 147.8185119628906 112.2012329101563 C 147.6113586425781 170.0490417480469 147.0251312255859 235.99658203125 146.7101593017578 271.4259643554688 C 146.6093292236328 282.7726440429688 146.5366973876953 290.9421081542969 146.5103607177734 294.9866333007813 Z" stroke="none"/><path d="M 145.0665283203125 4.04034423828125 C 136.4089965820313 4.24365234375 127.7828826904297 5.215087890625 119.3739624023438 6.935791015625 C 110.0980911254883 8.83392333984375 100.9740447998047 11.66616821289063 92.25529479980469 15.3538818359375 C 83.69396209716797 18.97503662109375 75.43621826171875 23.45721435546875 67.71146392822266 28.67596435546875 C 60.05908966064453 33.84579467773438 52.86300659179688 39.78317260742188 46.32308959960938 46.32308959960938 C 39.78317260742188 52.86300659179688 33.84580230712891 60.05908203125 28.67596435546875 67.71145629882813 C 23.45721435546875 75.43620300292969 18.97505187988281 83.69395446777344 15.3538818359375 92.25529479980469 C 11.66616821289063 100.9740447998047 8.83392333984375 110.0980834960938 6.935806274414063 119.3739624023438 C 4.987762451171875 128.8938293457031 4 138.6932525634766 4 148.5 C 4 158.3067474365234 4.987762451171875 168.1061706542969 6.935806274414063 177.6260375976563 C 8.83392333984375 186.9019165039063 11.66616821289063 196.0259552001953 15.3538818359375 204.7447052001953 C 18.97505187988281 213.3060302734375 23.45721435546875 221.5637817382813 28.67596435546875 229.2885437011719 C 33.84580230712891 236.94091796875 39.78317260742188 244.1369934082031 46.32308959960938 250.6769104003906 C 52.86300659179688 257.2168273925781 60.05908966064453 263.1542053222656 67.71146392822266 268.3240356445313 C 75.43621826171875 273.5427856445313 83.69396209716797 278.0249633789063 92.25529479980469 281.6461181640625 C 100.9740447998047 285.3338317871094 110.0980911254883 288.1660766601563 119.3739624023438 290.064208984375 C 127.6074066162109 291.7489929199219 136.0492706298828 292.7154846191406 144.5247955322266 292.9459228515625 C 144.5585327148438 288.4777221679688 144.6240844726563 281.1026916503906 144.7102508544922 271.4104614257813 C 145.0226287841797 236.2685852050781 145.6041259765625 170.8561706542969 145.8145904541016 113.2767486572266 C 145.9315490722656 81.28300476074219 145.9181671142578 55.70741271972656 145.7748870849609 37.2603759765625 C 145.6930541992188 26.719970703125 145.5671691894531 18.31936645507813 145.4007568359375 12.29193115234375 C 145.2890625 8.245452880859375 145.1700744628906 5.6728515625 145.0665283203125 4.04034423828125 M 148.5 0 C 151.6130981445313 0 148.5452117919922 279.69775390625 148.5 297 C 66.4857177734375 297 0 230.5142822265625 0 148.5 C 0 66.48570251464844 66.4857177734375 0 148.5 0 Z" stroke="none" fill="#c5bfbf"/></g></svg>